# This file uses centimeters as units for non-parametric coordinates.

mtllib floor.mtl
g default
v -8.424068 -0.000000 118.045064
v 7.138216 -0.000000 118.045064
v -8.424068 0.000000 -126.790330
v 7.138216 0.000000 -126.790330
vt 0.000000 0.000000
vt 1.000000 0.000000
vt 0.000000 0.754176
vt 1.000000 0.754176
vn 0.000000 1.000000 0.000000
vn 0.000000 1.000000 0.000000
vn 0.000000 1.000000 0.000000
vn 0.000000 1.000000 0.000000
s 1
g pPlane1
usemtl lambert2SG
f 1/1/1 2/2/2 3/3/3
f 3/3/3 2/2/2 4/4/4
